<svg xmlns="http://www.w3.org/2000/svg" width="512" height="512" viewBox="0 0 512 512">
  <defs>
    <linearGradient id="grad" x1="0%" y1="0%" x2="100%" y2="100%">
      <stop offset="0%" style="stop-color:#8B5CF6;stop-opacity:1" />
      <stop offset="100%" style="stop-color:#6366F1;stop-opacity:1" />
    </linearGradient>
  </defs>
  <rect width="512" height="512" rx="100" fill="url(#grad)"/>
  <path d="M128 210C115 215 106 230 106 250v160c0 16 12 26 26 26h212c16 0 26-10 26-26V250c0-12-6-20-16-24L256 184c-6-2-12-2-18 0L128 210zm128-12l106 42v146H134V256l122-48z" fill="white"/>
  <circle cx="256" cy="310" r="54" fill="none" stroke="white" stroke-width="20"/>
  <circle cx="256" cy="310" r="22" fill="white"/>
</svg>
